<svg xmlns="http://www.w3.org/2000/svg" viewBox="0 0 1600 760" width="1600" height="760" preserveAspectRatio="xMidYMid slice" role="img" aria-label="Janki Elegance banner">
  <defs>
    <linearGradient id="hb" x1="0" y1="0" x2="1" y2="1">
      <stop offset="0" stop-color="#6E1423"/>
      <stop offset="0.55" stop-color="#591020"/>
      <stop offset="1" stop-color="#3E0C18"/>
    </linearGradient>
    <radialGradient id="glow" cx="0.72" cy="0.4" r="0.6">
      <stop offset="0" stop-color="#D4AF37" stop-opacity="0.22"/>
      <stop offset="1" stop-color="#D4AF37" stop-opacity="0"/>
    </radialGradient>
    <pattern id="dots" width="46" height="46" patternUnits="userSpaceOnUse" patternTransform="rotate(45)">
      <circle cx="6" cy="6" r="1.6" fill="#D4AF37" opacity="0.16"/>
    </pattern>
  </defs>
  <rect width="1600" height="760" fill="url(#hb)"/>
  <rect width="1600" height="760" fill="url(#dots)"/>
  <rect width="1600" height="760" fill="url(#glow)"/>
  <g fill="none" stroke="#D4AF37" stroke-width="2" opacity="0.5">
    <circle cx="1180" cy="380" r="250"/>
    <circle cx="1180" cy="380" r="200"/>
  </g>
  <g fill="#D4AF37" opacity="0.5">
    <path d="M1180 200 q34 70 0 140 q-34 -70 0 -140 Z"/>
    <path d="M1360 380 q-70 34 -140 0 q70 -34 140 0 Z"/>
    <path d="M1180 560 q34 -70 0 -140 q-34 70 0 140 Z"/>
    <path d="M1000 380 q70 34 140 0 q-70 34 -140 0 Z"/>
  </g>
</svg>
