<svg xmlns="http://www.w3.org/2000/svg" viewBox="0 0 1600 900" width="1600" height="900" preserveAspectRatio="xMidYMid slice" role="img" aria-label="Janki Elegance collection">
  <defs>
    <linearGradient id="hb" x1="0" y1="0" x2="1" y2="1">
      <stop offset="0" stop-color="#2E4A32"/>
      <stop offset="0.55" stop-color="#223826"/>
      <stop offset="1" stop-color="#16281A"/>
    </linearGradient>
    <radialGradient id="glow" cx="0.72" cy="0.4" r="0.6">
      <stop offset="0" stop-color="#D4AF37" stop-opacity="0.22"/>
      <stop offset="1" stop-color="#D4AF37" stop-opacity="0"/>
    </radialGradient>
    <pattern id="dots" width="46" height="46" patternUnits="userSpaceOnUse" patternTransform="rotate(45)">
      <circle cx="6" cy="6" r="1.6" fill="#D4AF37" opacity="0.16"/>
    </pattern>
  </defs>
  <rect width="1600" height="900" fill="url(#hb)"/>
  <rect width="1600" height="900" fill="url(#dots)"/>
  <rect width="1600" height="900" fill="url(#glow)"/>
  <g fill="none" stroke="#D4AF37" stroke-width="2" opacity="0.5">
    <circle cx="1200" cy="450" r="250"/>
    <circle cx="1200" cy="450" r="200"/>
  </g>
  <g fill="#D4AF37" opacity="0.5">
    <path d="M1200 250 q34 90 0 180 q-34 -90 0 -180 Z"/>
    <path d="M1420 450 q-90 34 -180 0 q90 -34 180 0 Z"/>
    <path d="M1200 650 q34 -90 0 -180 q-34 90 0 180 Z"/>
    <path d="M980 450 q90 34 180 0 q-90 34 -180 0 Z"/>
  </g>
</svg>
